<svg xmlns="http://www.w3.org/2000/svg" viewBox="0 0 24 24" fill="#f0f0f5"><rect x="0" y="18" width="4" height="3" rx="0.5"/><rect x="5" y="18" width="4" height="3" rx="0.5"/><rect x="5" y="14" width="4" height="3" rx="0.5"/><rect x="10" y="18" width="4" height="3" rx="0.5"/><rect x="10" y="14" width="4" height="3" rx="0.5"/><rect x="10" y="10" width="4" height="3" rx="0.5"/><rect x="15" y="18" width="4" height="3" rx="0.5"/><rect x="15" y="14" width="4" height="3" rx="0.5"/><rect x="15" y="10" width="4" height="3" rx="0.5"/><rect x="15" y="6" width="4" height="3" rx="0.5"/><rect x="20" y="18" width="4" height="3" rx="0.5"/><rect x="20" y="14" width="4" height="3" rx="0.5"/><rect x="20" y="10" width="4" height="3" rx="0.5"/><rect x="20" y="6" width="4" height="3" rx="0.5"/><rect x="20" y="2" width="4" height="3" rx="0.5"/></svg>